<svg xmlns="http://www.w3.org/2000/svg" xmlns:xlink="http://www.w3.org/1999/xlink" width="3780" zoomAndPan="magnify" viewBox="0 0 2835 1417.499962" height="1890" preserveAspectRatio="xMidYMid meet" version="1.0"><defs><filter x="0%" y="0%" width="100%" height="100%" id="7acf4d1fd4"><feColorMatrix values="0 0 0 0 1 0 0 0 0 1 0 0 0 0 1 0 0 0 1 0" color-interpolation-filters="sRGB"/></filter><g/><clipPath id="82764733fa"><path d="M 0.5 0 L 2834.5 0 L 2834.5 1417 L 0.5 1417 Z M 0.5 0 " clip-rule="nonzero"/></clipPath><clipPath id="5a593f378b"><path d="M 0.5 0 L 2834.5 0 L 2834.5 1417 L 0.5 1417 Z M 0.5 0 " clip-rule="nonzero"/></clipPath><clipPath id="a6206ed6d1"><path d="M 0.5 0 L 2834.5 0 L 2834.5 1417 L 0.5 1417 Z M 0.5 0 " clip-rule="nonzero"/></clipPath><clipPath id="0f34b9ef09"><path d="M 0.5 0 L 2834.5 0 L 2834.5 1417 L 0.5 1417 Z M 0.5 0 " clip-rule="nonzero"/></clipPath><linearGradient x1="-351.444029" gradientTransform="matrix(0.749839, 0, 0, 0.750088, 264.026146, 511.97503)" y1="262" x2="3428.036399" gradientUnits="userSpaceOnUse" y2="262" id="cd62b544a1"><stop stop-opacity="1" stop-color="rgb(92.939758%, 46.269226%, 73.728943%)" offset="0"/><stop stop-opacity="1" stop-color="rgb(92.939758%, 46.269226%, 73.728943%)" offset="0.125"/><stop stop-opacity="1" stop-color="rgb(92.948914%, 46.350098%, 73.669434%)" offset="0.132813"/><stop stop-opacity="1" stop-color="rgb(92.982483%, 46.636963%, 73.460388%)" offset="0.136719"/><stop stop-opacity="1" stop-color="rgb(93.008423%, 46.844482%, 73.309326%)" offset="0.140625"/><stop stop-opacity="1" stop-color="rgb(93.032837%, 47.050476%, 73.158264%)" offset="0.144531"/><stop stop-opacity="1" stop-color="rgb(93.058777%, 47.257996%, 73.007202%)" offset="0.148438"/><stop stop-opacity="1" stop-color="rgb(93.083191%, 47.465515%, 72.85614%)" offset="0.152344"/><stop stop-opacity="1" stop-color="rgb(93.107605%, 47.673035%, 72.705078%)" offset="0.15625"/><stop stop-opacity="1" stop-color="rgb(93.132019%, 47.879028%, 72.554016%)" offset="0.160156"/><stop stop-opacity="1" stop-color="rgb(93.157959%, 48.086548%, 72.402954%)" offset="0.164063"/><stop stop-opacity="1" stop-color="rgb(93.182373%, 48.292542%, 72.251892%)" offset="0.167969"/><stop stop-opacity="1" stop-color="rgb(93.206787%, 48.500061%, 72.10083%)" offset="0.171875"/><stop stop-opacity="1" stop-color="rgb(93.231201%, 48.707581%, 71.949768%)" offset="0.175781"/><stop stop-opacity="1" stop-color="rgb(93.257141%, 48.9151%, 71.798706%)" offset="0.179688"/><stop stop-opacity="1" stop-color="rgb(93.281555%, 49.121094%, 71.647644%)" offset="0.183594"/><stop stop-opacity="1" stop-color="rgb(93.305969%, 49.328613%, 71.496582%)" offset="0.1875"/><stop stop-opacity="1" stop-color="rgb(93.330383%, 49.534607%, 71.34552%)" offset="0.191406"/><stop stop-opacity="1" stop-color="rgb(93.356323%, 49.742126%, 71.194458%)" offset="0.195313"/><stop stop-opacity="1" stop-color="rgb(93.380737%, 49.94812%, 71.043396%)" offset="0.199219"/><stop stop-opacity="1" stop-color="rgb(93.406677%, 50.15564%, 70.892334%)" offset="0.203125"/><stop stop-opacity="1" stop-color="rgb(93.431091%, 50.363159%, 70.741272%)" offset="0.207031"/><stop stop-opacity="1" stop-color="rgb(93.455505%, 50.570679%, 70.59021%)" offset="0.210938"/><stop stop-opacity="1" stop-color="rgb(93.479919%, 50.776672%, 70.439148%)" offset="0.214844"/><stop stop-opacity="1" stop-color="rgb(93.505859%, 50.984192%, 70.288086%)" offset="0.21875"/><stop stop-opacity="1" stop-color="rgb(93.530273%, 51.190186%, 70.137024%)" offset="0.222656"/><stop stop-opacity="1" stop-color="rgb(93.554688%, 51.397705%, 69.985962%)" offset="0.226563"/><stop stop-opacity="1" stop-color="rgb(93.579102%, 51.603699%, 69.8349%)" offset="0.230469"/><stop stop-opacity="1" stop-color="rgb(93.605042%, 51.811218%, 69.683838%)" offset="0.234375"/><stop stop-opacity="1" stop-color="rgb(93.629456%, 52.018738%, 69.532776%)" offset="0.238281"/><stop stop-opacity="1" stop-color="rgb(93.65387%, 52.226257%, 69.381714%)" offset="0.242188"/><stop stop-opacity="1" stop-color="rgb(93.678284%, 52.432251%, 69.230652%)" offset="0.246094"/><stop stop-opacity="1" stop-color="rgb(93.704224%, 52.639771%, 69.07959%)" offset="0.25"/><stop stop-opacity="1" stop-color="rgb(93.728638%, 52.845764%, 68.928528%)" offset="0.253906"/><stop stop-opacity="1" stop-color="rgb(93.754578%, 53.053284%, 68.777466%)" offset="0.257812"/><stop stop-opacity="1" stop-color="rgb(93.778992%, 53.259277%, 68.626404%)" offset="0.261719"/><stop stop-opacity="1" stop-color="rgb(93.803406%, 53.466797%, 68.475342%)" offset="0.265625"/><stop stop-opacity="1" stop-color="rgb(93.82782%, 53.674316%, 68.32428%)" offset="0.269531"/><stop stop-opacity="1" stop-color="rgb(93.85376%, 53.881836%, 68.173218%)" offset="0.273438"/><stop stop-opacity="1" stop-color="rgb(93.878174%, 54.08783%, 68.022156%)" offset="0.277344"/><stop stop-opacity="1" stop-color="rgb(93.902588%, 54.295349%, 67.871094%)" offset="0.28125"/><stop stop-opacity="1" stop-color="rgb(93.927002%, 54.501343%, 67.720032%)" offset="0.285156"/><stop stop-opacity="1" stop-color="rgb(93.952942%, 54.708862%, 67.56897%)" offset="0.289063"/><stop stop-opacity="1" stop-color="rgb(93.977356%, 54.914856%, 67.416382%)" offset="0.292969"/><stop stop-opacity="1" stop-color="rgb(94.00177%, 55.122375%, 67.26532%)" offset="0.296875"/><stop stop-opacity="1" stop-color="rgb(94.026184%, 55.329895%, 67.114258%)" offset="0.300781"/><stop stop-opacity="1" stop-color="rgb(94.052124%, 55.537415%, 66.963196%)" offset="0.304688"/><stop stop-opacity="1" stop-color="rgb(94.076538%, 55.743408%, 66.812134%)" offset="0.308594"/><stop stop-opacity="1" stop-color="rgb(94.102478%, 55.950928%, 66.661072%)" offset="0.3125"/><stop stop-opacity="1" stop-color="rgb(94.126892%, 56.156921%, 66.51001%)" offset="0.316406"/><stop stop-opacity="1" stop-color="rgb(94.151306%, 56.364441%, 66.358948%)" offset="0.320313"/><stop stop-opacity="1" stop-color="rgb(94.17572%, 56.57196%, 66.207886%)" offset="0.324219"/><stop stop-opacity="1" stop-color="rgb(94.20166%, 56.77948%, 66.056824%)" offset="0.328125"/><stop stop-opacity="1" stop-color="rgb(94.226074%, 56.985474%, 65.905762%)" offset="0.332031"/><stop stop-opacity="1" stop-color="rgb(94.250488%, 57.192993%, 65.7547%)" offset="0.335938"/><stop stop-opacity="1" stop-color="rgb(94.274902%, 57.398987%, 65.603638%)" offset="0.339844"/><stop stop-opacity="1" stop-color="rgb(94.300842%, 57.606506%, 65.452576%)" offset="0.34375"/><stop stop-opacity="1" stop-color="rgb(94.325256%, 57.8125%, 65.301514%)" offset="0.347656"/><stop stop-opacity="1" stop-color="rgb(94.351196%, 58.02002%, 65.150452%)" offset="0.351563"/><stop stop-opacity="1" stop-color="rgb(94.37561%, 58.227539%, 64.99939%)" offset="0.355469"/><stop stop-opacity="1" stop-color="rgb(94.400024%, 58.435059%, 64.848328%)" offset="0.359375"/><stop stop-opacity="1" stop-color="rgb(94.424438%, 58.641052%, 64.697266%)" offset="0.363281"/><stop stop-opacity="1" stop-color="rgb(94.450378%, 58.848572%, 64.546204%)" offset="0.367188"/><stop stop-opacity="1" stop-color="rgb(94.474792%, 59.054565%, 64.395142%)" offset="0.371094"/><stop stop-opacity="1" stop-color="rgb(94.499207%, 59.262085%, 64.24408%)" offset="0.375"/><stop stop-opacity="1" stop-color="rgb(94.523621%, 59.468079%, 64.093018%)" offset="0.378906"/><stop stop-opacity="1" stop-color="rgb(94.549561%, 59.675598%, 63.941956%)" offset="0.382813"/><stop stop-opacity="1" stop-color="rgb(94.573975%, 59.883118%, 63.790894%)" offset="0.386719"/><stop stop-opacity="1" stop-color="rgb(94.598389%, 60.090637%, 63.639832%)" offset="0.390625"/><stop stop-opacity="1" stop-color="rgb(94.622803%, 60.296631%, 63.48877%)" offset="0.394531"/><stop stop-opacity="1" stop-color="rgb(94.648743%, 60.50415%, 63.337708%)" offset="0.398438"/><stop stop-opacity="1" stop-color="rgb(94.673157%, 60.710144%, 63.186646%)" offset="0.402344"/><stop stop-opacity="1" stop-color="rgb(94.699097%, 60.917664%, 63.035583%)" offset="0.40625"/><stop stop-opacity="1" stop-color="rgb(94.723511%, 61.123657%, 62.884521%)" offset="0.410156"/><stop stop-opacity="1" stop-color="rgb(94.747925%, 61.331177%, 62.733459%)" offset="0.414063"/><stop stop-opacity="1" stop-color="rgb(94.772339%, 61.538696%, 62.582397%)" offset="0.417969"/><stop stop-opacity="1" stop-color="rgb(94.798279%, 61.746216%, 62.431335%)" offset="0.421875"/><stop stop-opacity="1" stop-color="rgb(94.822693%, 61.952209%, 62.280273%)" offset="0.425781"/><stop stop-opacity="1" stop-color="rgb(94.847107%, 62.159729%, 62.129211%)" offset="0.429688"/><stop stop-opacity="1" stop-color="rgb(94.871521%, 62.365723%, 61.978149%)" offset="0.433594"/><stop stop-opacity="1" stop-color="rgb(94.897461%, 62.573242%, 61.827087%)" offset="0.4375"/><stop stop-opacity="1" stop-color="rgb(94.921875%, 62.779236%, 61.676025%)" offset="0.441406"/><stop stop-opacity="1" stop-color="rgb(94.946289%, 62.986755%, 61.524963%)" offset="0.445313"/><stop stop-opacity="1" stop-color="rgb(94.970703%, 63.194275%, 61.373901%)" offset="0.449219"/><stop stop-opacity="1" stop-color="rgb(94.996643%, 63.401794%, 61.222839%)" offset="0.453125"/><stop stop-opacity="1" stop-color="rgb(95.021057%, 63.607788%, 61.071777%)" offset="0.457031"/><stop stop-opacity="1" stop-color="rgb(95.046997%, 63.815308%, 60.920715%)" offset="0.460938"/><stop stop-opacity="1" stop-color="rgb(95.071411%, 64.021301%, 60.769653%)" offset="0.464844"/><stop stop-opacity="1" stop-color="rgb(95.095825%, 64.228821%, 60.618591%)" offset="0.46875"/><stop stop-opacity="1" stop-color="rgb(95.120239%, 64.434814%, 60.467529%)" offset="0.472656"/><stop stop-opacity="1" stop-color="rgb(95.146179%, 64.642334%, 60.316467%)" offset="0.476563"/><stop stop-opacity="1" stop-color="rgb(95.170593%, 64.849854%, 60.165405%)" offset="0.480469"/><stop stop-opacity="1" stop-color="rgb(95.195007%, 65.057373%, 60.014343%)" offset="0.484375"/><stop stop-opacity="1" stop-color="rgb(95.219421%, 65.263367%, 59.863281%)" offset="0.488281"/><stop stop-opacity="1" stop-color="rgb(95.245361%, 65.470886%, 59.712219%)" offset="0.492188"/><stop stop-opacity="1" stop-color="rgb(95.269775%, 65.67688%, 59.561157%)" offset="0.496094"/><stop stop-opacity="1" stop-color="rgb(95.294189%, 65.884399%, 59.410095%)" offset="0.5"/><stop stop-opacity="1" stop-color="rgb(95.318604%, 66.091919%, 59.259033%)" offset="0.503906"/><stop stop-opacity="1" stop-color="rgb(95.344543%, 66.299438%, 59.107971%)" offset="0.507813"/><stop stop-opacity="1" stop-color="rgb(95.368958%, 66.505432%, 58.956909%)" offset="0.511719"/><stop stop-opacity="1" stop-color="rgb(95.394897%, 66.712952%, 58.805847%)" offset="0.515625"/><stop stop-opacity="1" stop-color="rgb(95.419312%, 66.918945%, 58.654785%)" offset="0.519531"/><stop stop-opacity="1" stop-color="rgb(95.443726%, 67.126465%, 58.503723%)" offset="0.523438"/><stop stop-opacity="1" stop-color="rgb(95.46814%, 67.332458%, 58.352661%)" offset="0.527344"/><stop stop-opacity="1" stop-color="rgb(95.49408%, 67.539978%, 58.201599%)" offset="0.53125"/><stop stop-opacity="1" stop-color="rgb(95.518494%, 67.747498%, 58.050537%)" offset="0.535156"/><stop stop-opacity="1" stop-color="rgb(95.542908%, 67.955017%, 57.899475%)" offset="0.539063"/><stop stop-opacity="1" stop-color="rgb(95.567322%, 68.161011%, 57.748413%)" offset="0.542969"/><stop stop-opacity="1" stop-color="rgb(95.593262%, 68.36853%, 57.597351%)" offset="0.546875"/><stop stop-opacity="1" stop-color="rgb(95.617676%, 68.574524%, 57.446289%)" offset="0.550781"/><stop stop-opacity="1" stop-color="rgb(95.643616%, 68.782043%, 57.295227%)" offset="0.554688"/><stop stop-opacity="1" stop-color="rgb(95.66803%, 68.988037%, 57.144165%)" offset="0.558594"/><stop stop-opacity="1" stop-color="rgb(95.692444%, 69.195557%, 56.993103%)" offset="0.5625"/><stop stop-opacity="1" stop-color="rgb(95.716858%, 69.403076%, 56.842041%)" offset="0.566406"/><stop stop-opacity="1" stop-color="rgb(95.742798%, 69.610596%, 56.690979%)" offset="0.570312"/><stop stop-opacity="1" stop-color="rgb(95.767212%, 69.816589%, 56.539917%)" offset="0.574219"/><stop stop-opacity="1" stop-color="rgb(95.791626%, 70.024109%, 56.388855%)" offset="0.578125"/><stop stop-opacity="1" stop-color="rgb(95.81604%, 70.230103%, 56.237793%)" offset="0.582031"/><stop stop-opacity="1" stop-color="rgb(95.84198%, 70.437622%, 56.086731%)" offset="0.585938"/><stop stop-opacity="1" stop-color="rgb(95.866394%, 70.643616%, 55.935669%)" offset="0.589844"/><stop stop-opacity="1" stop-color="rgb(95.890808%, 70.851135%, 55.784607%)" offset="0.59375"/><stop stop-opacity="1" stop-color="rgb(95.915222%, 71.058655%, 55.633545%)" offset="0.597656"/><stop stop-opacity="1" stop-color="rgb(95.941162%, 71.266174%, 55.482483%)" offset="0.601562"/><stop stop-opacity="1" stop-color="rgb(95.965576%, 71.472168%, 55.331421%)" offset="0.605469"/><stop stop-opacity="1" stop-color="rgb(95.991516%, 71.679688%, 55.180359%)" offset="0.609375"/><stop stop-opacity="1" stop-color="rgb(96.01593%, 71.885681%, 55.029297%)" offset="0.613281"/><stop stop-opacity="1" stop-color="rgb(96.040344%, 72.093201%, 54.878235%)" offset="0.617188"/><stop stop-opacity="1" stop-color="rgb(96.064758%, 72.299194%, 54.727173%)" offset="0.621094"/><stop stop-opacity="1" stop-color="rgb(96.090698%, 72.506714%, 54.576111%)" offset="0.625"/><stop stop-opacity="1" stop-color="rgb(96.115112%, 72.714233%, 54.425049%)" offset="0.628906"/><stop stop-opacity="1" stop-color="rgb(96.139526%, 72.921753%, 54.273987%)" offset="0.632813"/><stop stop-opacity="1" stop-color="rgb(96.16394%, 73.127747%, 54.122925%)" offset="0.636719"/><stop stop-opacity="1" stop-color="rgb(96.18988%, 73.335266%, 53.971863%)" offset="0.640625"/><stop stop-opacity="1" stop-color="rgb(96.214294%, 73.54126%, 53.820801%)" offset="0.644531"/><stop stop-opacity="1" stop-color="rgb(96.238708%, 73.748779%, 53.669739%)" offset="0.648438"/><stop stop-opacity="1" stop-color="rgb(96.263123%, 73.956299%, 53.518677%)" offset="0.652344"/><stop stop-opacity="1" stop-color="rgb(96.289062%, 74.163818%, 53.367615%)" offset="0.65625"/><stop stop-opacity="1" stop-color="rgb(96.313477%, 74.369812%, 53.216553%)" offset="0.660156"/><stop stop-opacity="1" stop-color="rgb(96.339417%, 74.577332%, 53.065491%)" offset="0.664063"/><stop stop-opacity="1" stop-color="rgb(96.363831%, 74.783325%, 52.914429%)" offset="0.667969"/><stop stop-opacity="1" stop-color="rgb(96.388245%, 74.990845%, 52.763367%)" offset="0.671875"/><stop stop-opacity="1" stop-color="rgb(96.412659%, 75.196838%, 52.612305%)" offset="0.675781"/><stop stop-opacity="1" stop-color="rgb(96.438599%, 75.404358%, 52.461243%)" offset="0.679688"/><stop stop-opacity="1" stop-color="rgb(96.463013%, 75.611877%, 52.310181%)" offset="0.683594"/><stop stop-opacity="1" stop-color="rgb(96.487427%, 75.819397%, 52.159119%)" offset="0.6875"/><stop stop-opacity="1" stop-color="rgb(96.511841%, 76.025391%, 52.008057%)" offset="0.691406"/><stop stop-opacity="1" stop-color="rgb(96.537781%, 76.23291%, 51.856995%)" offset="0.695313"/><stop stop-opacity="1" stop-color="rgb(96.562195%, 76.438904%, 51.705933%)" offset="0.699219"/><stop stop-opacity="1" stop-color="rgb(96.586609%, 76.646423%, 51.554871%)" offset="0.703125"/><stop stop-opacity="1" stop-color="rgb(96.611023%, 76.852417%, 51.403809%)" offset="0.707031"/><stop stop-opacity="1" stop-color="rgb(96.636963%, 77.059937%, 51.252747%)" offset="0.710938"/><stop stop-opacity="1" stop-color="rgb(96.661377%, 77.267456%, 51.101685%)" offset="0.714844"/><stop stop-opacity="1" stop-color="rgb(96.687317%, 77.474976%, 50.950623%)" offset="0.71875"/><stop stop-opacity="1" stop-color="rgb(96.711731%, 77.680969%, 50.799561%)" offset="0.722656"/><stop stop-opacity="1" stop-color="rgb(96.736145%, 77.888489%, 50.648499%)" offset="0.726563"/><stop stop-opacity="1" stop-color="rgb(96.760559%, 78.094482%, 50.497437%)" offset="0.730469"/><stop stop-opacity="1" stop-color="rgb(96.786499%, 78.302002%, 50.346375%)" offset="0.734375"/><stop stop-opacity="1" stop-color="rgb(96.810913%, 78.507996%, 50.195312%)" offset="0.738281"/><stop stop-opacity="1" stop-color="rgb(96.835327%, 78.715515%, 50.04425%)" offset="0.742188"/><stop stop-opacity="1" stop-color="rgb(96.859741%, 78.923035%, 49.893188%)" offset="0.746094"/><stop stop-opacity="1" stop-color="rgb(96.885681%, 79.130554%, 49.742126%)" offset="0.75"/><stop stop-opacity="1" stop-color="rgb(96.910095%, 79.336548%, 49.589539%)" offset="0.753906"/><stop stop-opacity="1" stop-color="rgb(96.934509%, 79.544067%, 49.438477%)" offset="0.757813"/><stop stop-opacity="1" stop-color="rgb(96.958923%, 79.750061%, 49.287415%)" offset="0.761719"/><stop stop-opacity="1" stop-color="rgb(96.984863%, 79.957581%, 49.136353%)" offset="0.765625"/><stop stop-opacity="1" stop-color="rgb(97.009277%, 80.163574%, 48.985291%)" offset="0.769531"/><stop stop-opacity="1" stop-color="rgb(97.035217%, 80.371094%, 48.834229%)" offset="0.773438"/><stop stop-opacity="1" stop-color="rgb(97.059631%, 80.578613%, 48.683167%)" offset="0.777344"/><stop stop-opacity="1" stop-color="rgb(97.084045%, 80.786133%, 48.532104%)" offset="0.78125"/><stop stop-opacity="1" stop-color="rgb(97.108459%, 80.992126%, 48.381042%)" offset="0.785156"/><stop stop-opacity="1" stop-color="rgb(97.134399%, 81.199646%, 48.22998%)" offset="0.789063"/><stop stop-opacity="1" stop-color="rgb(97.158813%, 81.40564%, 48.078918%)" offset="0.792969"/><stop stop-opacity="1" stop-color="rgb(97.183228%, 81.613159%, 47.927856%)" offset="0.796875"/><stop stop-opacity="1" stop-color="rgb(97.207642%, 81.819153%, 47.776794%)" offset="0.800781"/><stop stop-opacity="1" stop-color="rgb(97.233582%, 82.026672%, 47.625732%)" offset="0.804688"/><stop stop-opacity="1" stop-color="rgb(97.257996%, 82.234192%, 47.47467%)" offset="0.808594"/><stop stop-opacity="1" stop-color="rgb(97.283936%, 82.441711%, 47.323608%)" offset="0.8125"/><stop stop-opacity="1" stop-color="rgb(97.30835%, 82.647705%, 47.172546%)" offset="0.816406"/><stop stop-opacity="1" stop-color="rgb(97.332764%, 82.855225%, 47.021484%)" offset="0.820312"/><stop stop-opacity="1" stop-color="rgb(97.357178%, 83.061218%, 46.870422%)" offset="0.824219"/><stop stop-opacity="1" stop-color="rgb(97.383118%, 83.268738%, 46.71936%)" offset="0.828125"/><stop stop-opacity="1" stop-color="rgb(97.407532%, 83.476257%, 46.568298%)" offset="0.832031"/><stop stop-opacity="1" stop-color="rgb(97.431946%, 83.683777%, 46.417236%)" offset="0.835938"/><stop stop-opacity="1" stop-color="rgb(97.45636%, 83.889771%, 46.266174%)" offset="0.839844"/><stop stop-opacity="1" stop-color="rgb(97.4823%, 84.09729%, 46.115112%)" offset="0.84375"/><stop stop-opacity="1" stop-color="rgb(97.506714%, 84.303284%, 45.96405%)" offset="0.847656"/><stop stop-opacity="1" stop-color="rgb(97.531128%, 84.510803%, 45.812988%)" offset="0.851562"/><stop stop-opacity="1" stop-color="rgb(97.555542%, 84.716797%, 45.661926%)" offset="0.855469"/><stop stop-opacity="1" stop-color="rgb(97.581482%, 84.924316%, 45.510864%)" offset="0.859375"/><stop stop-opacity="1" stop-color="rgb(97.605896%, 85.131836%, 45.359802%)" offset="0.863281"/><stop stop-opacity="1" stop-color="rgb(97.631836%, 85.339355%, 45.20874%)" offset="0.867188"/><stop stop-opacity="1" stop-color="rgb(97.639465%, 85.414124%, 45.153809%)" offset="0.875"/><stop stop-opacity="1" stop-color="rgb(97.648621%, 85.488892%, 45.098877%)" offset="1"/></linearGradient><clipPath id="95c9e4d50a"><rect x="0" width="2835" y="0" height="1417"/></clipPath><clipPath id="9951b91eda"><path d="M 0.5 0 L 2834.5 0 L 2834.5 1417 L 0.5 1417 Z M 0.5 0 " clip-rule="nonzero"/></clipPath><clipPath id="545eb756ae"><rect x="0" width="2835" y="0" height="1417"/></clipPath><clipPath id="3aeba48792"><rect x="0" width="2835" y="0" height="1417"/></clipPath><mask id="73e8586486"><g filter="url(#7acf4d1fd4)"><g transform="matrix(1, 0, 0, 1, 0, 0)"><g clip-path="url(#3aeba48792)"><g clip-path="url(#9951b91eda)"><g transform="matrix(1, 0, 0, 1, 0, 0)"><g clip-path="url(#545eb756ae)"><g fill="#000000" fill-opacity="1"><g transform="translate(368.55336, 869.71335)"><g><path d="M 68.140625 -15.578125 C 72.296875 -15.578125 76.835938 -17.78125 81.765625 -22.1875 C 86.691406 -26.601562 91.75 -33.03125 96.9375 -41.46875 C 102.132812 -49.90625 107.195312 -60.222656 112.125 -72.421875 C 117.0625 -84.617188 121.609375 -98.765625 125.765625 -114.859375 L 117.203125 -72.421875 C 110.710938 -53.210938 103.570312 -37.894531 95.78125 -26.46875 C 88 -15.050781 79.691406 -6.875 70.859375 -1.9375 C 62.035156 2.988281 52.820312 5.453125 43.21875 5.453125 C 28.6875 5.453125 17.785156 1.171875 10.515625 -7.390625 C 3.242188 -15.960938 -0.390625 -27.644531 -0.390625 -42.4375 C -0.390625 -56.457031 2.007812 -71.125 6.8125 -86.4375 C 11.613281 -101.75 18.101562 -116.539062 26.28125 -130.8125 C 34.457031 -145.09375 43.671875 -157.941406 53.921875 -169.359375 C 64.179688 -180.785156 75.082031 -189.875 86.625 -196.625 C 98.175781 -203.375 109.535156 -206.75 120.703125 -206.75 C 129.265625 -206.75 135.878906 -203.375 140.546875 -196.625 C 145.222656 -189.875 146.65625 -179.363281 144.84375 -165.09375 L 140.5625 -162.75 C 141.851562 -172.09375 141.394531 -179.359375 139.1875 -184.546875 C 136.988281 -189.742188 133.289062 -192.34375 128.09375 -192.34375 C 122.90625 -192.34375 117.128906 -189.359375 110.765625 -183.390625 C 104.410156 -177.421875 98.117188 -169.242188 91.890625 -158.859375 C 85.660156 -148.472656 79.882812 -136.722656 74.5625 -123.609375 C 69.238281 -110.503906 65.019531 -96.75 61.90625 -82.34375 C 58.789062 -67.9375 57.234375 -53.726562 57.234375 -39.71875 C 57.234375 -30.882812 58.140625 -24.648438 59.953125 -21.015625 C 61.773438 -17.390625 64.503906 -15.578125 68.140625 -15.578125 Z M 150.6875 -200.90625 C 161.84375 -201.164062 171.960938 -201.75 181.046875 -202.65625 C 190.140625 -203.570312 198.835938 -204.9375 207.140625 -206.75 L 156.140625 -33.09375 C 155.359375 -29.71875 154.769531 -26.535156 154.375 -23.546875 C 153.988281 -20.566406 154.378906 -18.164062 155.546875 -16.34375 C 156.710938 -14.53125 158.722656 -13.625 161.578125 -13.625 C 164.953125 -13.625 168.71875 -15.632812 172.875 -19.65625 C 177.03125 -23.6875 181.3125 -31.929688 185.71875 -44.390625 L 192.734375 -63.078125 L 200.125 -63.078125 L 190.390625 -34.65625 C 186.765625 -24.007812 182.09375 -15.832031 176.375 -10.125 C 170.664062 -4.414062 164.566406 -0.394531 158.078125 1.9375 C 151.585938 4.28125 145.226562 5.453125 139 5.453125 C 125.5 5.453125 115.894531 1.425781 110.1875 -6.625 C 106.289062 -12.332031 104.535156 -19.40625 104.921875 -27.84375 C 105.316406 -36.28125 107.070312 -45.945312 110.1875 -56.84375 Z M 150.6875 -200.90625 "/></g></g></g><g fill="#000000" fill-opacity="1"><g transform="translate(585.818058, 869.71335)"><g><path d="M 60.734375 0 L 5.84375 0 L 53.34375 -168.203125 C 54.382812 -171.578125 54.96875 -174.753906 55.09375 -177.734375 C 55.21875 -180.722656 54.890625 -183.125 54.109375 -184.9375 C 53.335938 -186.757812 51.394531 -187.671875 48.28125 -187.671875 C 43.863281 -187.671875 39.707031 -185.332031 35.8125 -180.65625 C 31.925781 -175.988281 27.90625 -168.070312 23.75 -156.90625 L 16.359375 -137.046875 L 8.953125 -137.046875 L 19.46875 -166.640625 C 23.363281 -177.023438 28.035156 -185.070312 33.484375 -190.78125 C 38.929688 -196.5 45.03125 -200.585938 51.78125 -203.046875 C 58.53125 -205.515625 65.28125 -206.75 72.03125 -206.75 C 80.851562 -206.75 87.597656 -205.125 92.265625 -201.875 C 96.941406 -198.632812 100.054688 -194.285156 101.609375 -188.828125 C 103.171875 -183.378906 103.691406 -177.472656 103.171875 -171.109375 C 102.660156 -164.753906 101.625 -158.460938 100.0625 -152.234375 Z M 154.96875 -161.578125 C 156.257812 -165.992188 157.226562 -169.953125 157.875 -173.453125 C 158.53125 -176.960938 158.46875 -179.753906 157.6875 -181.828125 C 156.90625 -183.910156 154.957031 -184.953125 151.84375 -184.953125 C 145.875 -184.953125 139.515625 -181.378906 132.765625 -174.234375 C 126.015625 -167.097656 119.070312 -157.039062 111.9375 -144.0625 C 104.800781 -131.082031 97.726562 -115.632812 90.71875 -97.71875 C 83.707031 -79.8125 77.085938 -60.21875 70.859375 -38.9375 L 72.8125 -65.796875 C 83.707031 -100.328125 94.347656 -127.910156 104.734375 -148.546875 C 115.117188 -169.179688 126.28125 -184.039062 138.21875 -193.125 C 150.164062 -202.207031 163.664062 -206.75 178.71875 -206.75 C 187.28125 -206.75 193.832031 -205.191406 198.375 -202.078125 C 202.914062 -198.960938 205.960938 -194.675781 207.515625 -189.21875 C 209.078125 -183.769531 209.535156 -177.539062 208.890625 -170.53125 C 208.242188 -163.53125 206.878906 -156.003906 204.796875 -147.953125 L 163.140625 0 L 107.46875 0 Z M 258.921875 -161.578125 C 261.253906 -168.328125 262.351562 -173.910156 262.21875 -178.328125 C 262.09375 -182.742188 260.21875 -184.953125 256.59375 -184.953125 C 251.65625 -184.953125 246.003906 -181.898438 239.640625 -175.796875 C 233.285156 -169.691406 226.472656 -160.472656 219.203125 -148.140625 C 211.941406 -135.816406 204.414062 -120.242188 196.625 -101.421875 C 188.84375 -82.609375 181.054688 -60.484375 173.265625 -35.046875 L 174.046875 -56.0625 C 183.390625 -85.65625 192.28125 -110.1875 200.71875 -129.65625 C 209.15625 -149.125 217.71875 -164.503906 226.40625 -175.796875 C 235.101562 -187.085938 244.125 -195.066406 253.46875 -199.734375 C 262.8125 -204.410156 272.804688 -206.75 283.453125 -206.75 C 294.617188 -206.75 302.664062 -204.085938 307.59375 -198.765625 C 312.519531 -193.441406 315.046875 -186.367188 315.171875 -177.546875 C 315.304688 -168.722656 313.5625 -158.859375 309.9375 -147.953125 L 271.765625 -33.09375 C 269.171875 -25.5625 268.585938 -20.429688 270.015625 -17.703125 C 271.441406 -14.984375 273.710938 -13.625 276.828125 -13.625 C 280.203125 -13.625 283.96875 -15.503906 288.125 -19.265625 C 292.28125 -23.035156 296.691406 -31.410156 301.359375 -44.390625 L 308.375 -63.078125 L 315.765625 -63.078125 L 306.03125 -34.65625 C 302.394531 -23.75 297.65625 -15.441406 291.8125 -9.734375 C 285.976562 -4.023438 279.75 -0.0664062 273.125 2.140625 C 266.507812 4.347656 259.957031 5.453125 253.46875 5.453125 C 245.945312 5.453125 239.585938 4.21875 234.390625 1.75 C 229.203125 -0.71875 225.179688 -4.15625 222.328125 -8.5625 C 218.953125 -13.757812 217.457031 -20.378906 217.84375 -28.421875 C 218.238281 -36.472656 220.25 -45.816406 223.875 -56.453125 Z M 258.921875 -161.578125 "/></g></g></g><g fill="#000000" fill-opacity="1"><g transform="translate(919.112923, 869.71335)"><g><path d="M 68.921875 -266.328125 C 69.441406 -277.484375 73.53125 -286.046875 81.1875 -292.015625 C 88.84375 -297.984375 97.988281 -300.96875 108.625 -300.96875 C 118.226562 -300.96875 125.5625 -298.695312 130.625 -294.15625 C 135.6875 -289.613281 137.957031 -283.320312 137.4375 -275.28125 C 136.925781 -265.15625 132.773438 -256.910156 124.984375 -250.546875 C 117.191406 -244.191406 107.847656 -241.015625 96.953125 -241.015625 C 87.867188 -241.015625 80.796875 -243.285156 75.734375 -247.828125 C 70.671875 -252.367188 68.398438 -258.535156 68.921875 -266.328125 Z M 54.125 -168.203125 C 58.53125 -181.179688 57.101562 -187.671875 49.84375 -187.671875 C 45.164062 -187.671875 40.878906 -185.332031 36.984375 -180.65625 C 33.097656 -175.988281 29.078125 -168.070312 24.921875 -156.90625 L 17.125 -137.046875 L 9.734375 -137.046875 L 20.640625 -166.640625 C 24.273438 -177.023438 28.878906 -185.070312 34.453125 -190.78125 C 40.035156 -196.5 46.265625 -200.585938 53.140625 -203.046875 C 60.023438 -205.515625 67.226562 -206.75 74.75 -206.75 C 83.84375 -206.75 90.984375 -205.0625 96.171875 -201.6875 C 101.359375 -198.3125 104.859375 -193.960938 106.671875 -188.640625 C 108.492188 -183.316406 109.144531 -177.472656 108.625 -171.109375 C 108.113281 -164.753906 106.816406 -158.460938 104.734375 -152.234375 L 63.859375 -33.09375 C 61.515625 -26.082031 60.925781 -21.082031 62.09375 -18.09375 C 63.269531 -15.113281 65.675781 -13.625 69.3125 -13.625 C 72.6875 -13.625 76.382812 -15.570312 80.40625 -19.46875 C 84.425781 -23.363281 88.898438 -31.671875 93.828125 -44.390625 L 100.84375 -63.078125 L 108.234375 -63.078125 L 98.125 -34.65625 C 94.488281 -24.007812 89.8125 -15.832031 84.09375 -10.125 C 78.382812 -4.414062 72.21875 -0.394531 65.59375 1.9375 C 58.976562 4.28125 52.300781 5.453125 45.5625 5.453125 C 34.394531 5.453125 25.890625 2.988281 20.046875 -1.9375 C 14.210938 -6.875 11.035156 -14.015625 10.515625 -23.359375 C 9.992188 -32.703125 11.8125 -43.734375 15.96875 -56.453125 Z M 54.125 -168.203125 "/></g></g></g><g fill="#000000" fill-opacity="1"><g transform="translate(1044.487907, 869.71335)"><g><path d="M 60.734375 0 L 5.84375 0 L 53.34375 -168.203125 C 55.15625 -175.210938 55.738281 -180.207031 55.09375 -183.1875 C 54.445312 -186.175781 52.4375 -187.671875 49.0625 -187.671875 C 44.382812 -187.671875 40.097656 -185.398438 36.203125 -180.859375 C 32.316406 -176.316406 28.164062 -168.332031 23.75 -156.90625 L 16.359375 -137.046875 L 8.953125 -137.046875 L 19.46875 -166.640625 C 23.363281 -177.023438 28.035156 -185.070312 33.484375 -190.78125 C 38.929688 -196.5 45.09375 -200.585938 51.96875 -203.046875 C 58.851562 -205.515625 65.929688 -206.75 73.203125 -206.75 C 81.503906 -206.75 87.859375 -205.125 92.265625 -201.875 C 96.679688 -198.632812 99.664062 -194.285156 101.21875 -188.828125 C 102.78125 -183.378906 103.367188 -177.472656 102.984375 -171.109375 C 102.597656 -164.753906 101.625 -158.460938 100.0625 -152.234375 Z M 160.421875 -198.1875 C 155.222656 -198.1875 149.640625 -196.628906 143.671875 -193.515625 C 137.703125 -190.398438 131.601562 -184.816406 125.375 -176.765625 C 119.144531 -168.722656 112.585938 -157.5625 105.703125 -143.28125 C 98.828125 -129.007812 91.820312 -110.773438 84.6875 -88.578125 C 77.550781 -66.378906 70.21875 -39.578125 62.6875 -8.171875 L 71.25 -60.734375 C 79.5625 -89.285156 87.085938 -112.90625 93.828125 -131.59375 C 100.578125 -150.289062 107.390625 -165.15625 114.265625 -176.1875 C 121.148438 -187.21875 128.421875 -195.066406 136.078125 -199.734375 C 143.734375 -204.410156 152.492188 -206.75 162.359375 -206.75 C 172.484375 -206.75 180.269531 -203.765625 185.71875 -197.796875 C 191.175781 -191.828125 193.90625 -184.300781 193.90625 -175.21875 C 193.90625 -167.945312 192.28125 -161.257812 189.03125 -155.15625 C 185.789062 -149.0625 181.378906 -144.128906 175.796875 -140.359375 C 170.210938 -136.597656 163.914062 -134.71875 156.90625 -134.71875 C 149.382812 -134.71875 143.546875 -136.726562 139.390625 -140.75 C 135.234375 -144.769531 133.15625 -150.546875 133.15625 -158.078125 C 133.15625 -164.304688 134.582031 -170.082031 137.4375 -175.40625 C 140.300781 -180.726562 144.195312 -185.332031 149.125 -189.21875 C 154.050781 -193.113281 159.503906 -195.710938 165.484375 -197.015625 C 164.703125 -197.273438 163.921875 -197.535156 163.140625 -197.796875 C 162.359375 -198.054688 161.453125 -198.1875 160.421875 -198.1875 Z M 160.421875 -198.1875 "/></g></g></g><g fill="#000000" fill-opacity="1"><g transform="translate(1222.037531, 869.71335)"><g><path d="M 68.140625 -15.578125 C 72.296875 -15.578125 76.835938 -17.78125 81.765625 -22.1875 C 86.691406 -26.601562 91.75 -33.03125 96.9375 -41.46875 C 102.132812 -49.90625 107.195312 -60.222656 112.125 -72.421875 C 117.0625 -84.617188 121.609375 -98.765625 125.765625 -114.859375 L 117.203125 -72.421875 C 110.710938 -53.210938 103.570312 -37.894531 95.78125 -26.46875 C 88 -15.050781 79.691406 -6.875 70.859375 -1.9375 C 62.035156 2.988281 52.820312 5.453125 43.21875 5.453125 C 28.6875 5.453125 17.785156 1.171875 10.515625 -7.390625 C 3.242188 -15.960938 -0.390625 -27.644531 -0.390625 -42.4375 C -0.390625 -56.457031 2.007812 -71.125 6.8125 -86.4375 C 11.613281 -101.75 18.101562 -116.539062 26.28125 -130.8125 C 34.457031 -145.09375 43.671875 -157.941406 53.921875 -169.359375 C 64.179688 -180.785156 75.082031 -189.875 86.625 -196.625 C 98.175781 -203.375 109.535156 -206.75 120.703125 -206.75 C 129.265625 -206.75 135.878906 -203.375 140.546875 -196.625 C 145.222656 -189.875 146.65625 -179.363281 144.84375 -165.09375 L 140.5625 -162.75 C 141.851562 -172.09375 141.394531 -179.359375 139.1875 -184.546875 C 136.988281 -189.742188 133.289062 -192.34375 128.09375 -192.34375 C 122.90625 -192.34375 117.128906 -189.359375 110.765625 -183.390625 C 104.410156 -177.421875 98.117188 -169.242188 91.890625 -158.859375 C 85.660156 -148.472656 79.882812 -136.722656 74.5625 -123.609375 C 69.238281 -110.503906 65.019531 -96.75 61.90625 -82.34375 C 58.789062 -67.9375 57.234375 -53.726562 57.234375 -39.71875 C 57.234375 -30.882812 58.140625 -24.648438 59.953125 -21.015625 C 61.773438 -17.390625 64.503906 -15.578125 68.140625 -15.578125 Z M 150.6875 -200.90625 C 161.84375 -201.164062 171.960938 -201.75 181.046875 -202.65625 C 190.140625 -203.570312 198.835938 -204.9375 207.140625 -206.75 L 156.140625 -33.09375 C 155.359375 -29.71875 154.769531 -26.535156 154.375 -23.546875 C 153.988281 -20.566406 154.378906 -18.164062 155.546875 -16.34375 C 156.710938 -14.53125 158.722656 -13.625 161.578125 -13.625 C 164.953125 -13.625 168.71875 -15.632812 172.875 -19.65625 C 177.03125 -23.6875 181.3125 -31.929688 185.71875 -44.390625 L 192.734375 -63.078125 L 200.125 -63.078125 L 190.390625 -34.65625 C 186.765625 -24.007812 182.09375 -15.832031 176.375 -10.125 C 170.664062 -4.414062 164.566406 -0.394531 158.078125 1.9375 C 151.585938 4.28125 145.226562 5.453125 139 5.453125 C 125.5 5.453125 115.894531 1.425781 110.1875 -6.625 C 106.289062 -12.332031 104.535156 -19.40625 104.921875 -27.84375 C 105.316406 -36.28125 107.070312 -45.945312 110.1875 -56.84375 Z M 150.6875 -200.90625 "/></g></g></g><g fill="#000000" fill-opacity="1"><g transform="translate(1439.302206, 869.71335)"><g><path d="M 119.53125 -258.53125 C 119.53125 -242.1875 114.40625 -226.875 104.15625 -212.59375 C 93.90625 -198.320312 79.695312 -187.160156 61.53125 -179.109375 L 59.578125 -185.34375 C 70.734375 -191.050781 80.332031 -198.445312 88.375 -207.53125 C 96.425781 -216.613281 100.84375 -226.738281 101.625 -237.90625 C 98.25 -234.53125 94.484375 -231.800781 90.328125 -229.71875 C 86.179688 -227.644531 81.898438 -226.609375 77.484375 -226.609375 C 69.703125 -226.609375 63.734375 -228.425781 59.578125 -232.0625 C 55.421875 -235.695312 53.34375 -240.890625 53.34375 -247.640625 C 53.34375 -254.648438 55.160156 -261.140625 58.796875 -267.109375 C 62.429688 -273.078125 67.296875 -277.8125 73.390625 -281.3125 C 79.492188 -284.820312 86.3125 -286.578125 93.84375 -286.578125 C 102.144531 -286.578125 108.5 -284.175781 112.90625 -279.375 C 117.320312 -274.570312 119.53125 -267.625 119.53125 -258.53125 Z M 119.53125 -258.53125 "/></g></g></g><g fill="#000000" fill-opacity="1"><g transform="translate(1536.2537, 869.71335)"><g><path d="M 28.8125 -5.453125 C 30.882812 -4.410156 33.085938 -3.691406 35.421875 -3.296875 C 37.765625 -2.910156 40.625 -2.71875 44 -2.71875 C 53.601562 -2.71875 61.453125 -5.640625 67.546875 -11.484375 C 73.648438 -17.328125 76.703125 -25.566406 76.703125 -36.203125 C 76.703125 -44.773438 74.882812 -53.535156 71.25 -62.484375 C 67.613281 -71.441406 62.164062 -81.242188 54.90625 -91.890625 C 48.925781 -101.234375 43.40625 -110.316406 38.34375 -119.140625 C 33.289062 -127.960938 30.765625 -138.085938 30.765625 -149.515625 C 30.765625 -160.671875 33.617188 -170.53125 39.328125 -179.09375 C 45.035156 -187.664062 53.144531 -194.414062 63.65625 -199.34375 C 74.164062 -204.28125 86.820312 -206.75 101.625 -206.75 C 111.226562 -206.75 120.503906 -205.578125 129.453125 -203.234375 C 138.410156 -200.898438 145.875 -196.878906 151.84375 -191.171875 C 157.820312 -185.460938 160.8125 -177.15625 160.8125 -166.25 C 160.8125 -162.363281 159.96875 -158.082031 158.28125 -153.40625 C 156.59375 -148.738281 153.992188 -144.910156 150.484375 -141.921875 C 146.984375 -138.929688 142.503906 -137.4375 137.046875 -137.4375 C 130.566406 -137.4375 125.378906 -139.835938 121.484375 -144.640625 C 117.585938 -149.441406 115.640625 -155.738281 115.640625 -163.53125 C 115.640625 -170.539062 116.867188 -176.832031 119.328125 -182.40625 C 121.796875 -187.988281 124.585938 -192.46875 127.703125 -195.84375 C 124.328125 -197.925781 119.785156 -198.96875 114.078125 -198.96875 C 104.734375 -198.96875 97.398438 -196.109375 92.078125 -190.390625 C 86.765625 -184.679688 83.976562 -176.503906 83.71875 -165.859375 C 83.71875 -159.890625 84.753906 -154.242188 86.828125 -148.921875 C 88.898438 -143.609375 91.753906 -138.222656 95.390625 -132.765625 C 99.023438 -127.316406 102.921875 -121.21875 107.078125 -114.46875 C 114.859375 -101.75 120.628906 -90.847656 124.390625 -81.765625 C 128.160156 -72.679688 130.046875 -63.46875 130.046875 -54.125 C 130.046875 -42.957031 127.125 -32.894531 121.28125 -23.9375 C 115.445312 -14.988281 107.007812 -7.851562 95.96875 -2.53125 C 84.9375 2.789062 71.894531 5.453125 56.84375 5.453125 C 45.945312 5.453125 35.566406 4.023438 25.703125 1.171875 C 15.835938 -1.679688 7.851562 -6.414062 1.75 -13.03125 C -4.34375 -19.65625 -7.390625 -28.550781 -7.390625 -39.71875 C -7.390625 -46.976562 -5.507812 -53.460938 -1.75 -59.171875 C 2.007812 -64.890625 7.394531 -67.75 14.40625 -67.75 C 21.414062 -67.75 26.863281 -64.828125 30.75 -58.984375 C 34.644531 -53.148438 36.59375 -45.945312 36.59375 -37.375 C 36.59375 -30.625 35.617188 -24.523438 33.671875 -19.078125 C 31.734375 -13.628906 30.113281 -9.085938 28.8125 -5.453125 Z M 28.8125 -5.453125 "/></g></g></g><g fill="#000000" fill-opacity="1"><g transform="translate(1699.786226, 869.71335)"><g/></g></g><g fill="#000000" fill-opacity="1"><g transform="translate(1799.073889, 869.71335)"><g><path d="M 47.890625 0 L -7.015625 0 L 70.078125 -259.703125 C 72.679688 -268.523438 72.425781 -275.015625 69.3125 -279.171875 C 66.195312 -283.328125 58.28125 -285.40625 45.5625 -285.40625 L 47.890625 -293.578125 C 66.316406 -293.835938 82.796875 -295.328125 97.328125 -298.046875 C 111.867188 -300.773438 125.628906 -304.609375 138.609375 -309.546875 Z M 57.625 -56.453125 C 68.007812 -86.304688 77.675781 -110.96875 86.625 -130.4375 C 95.582031 -149.90625 104.34375 -165.21875 112.90625 -176.375 C 121.476562 -187.539062 130.304688 -195.394531 139.390625 -199.9375 C 148.472656 -204.476562 158.207031 -206.75 168.59375 -206.75 C 181.3125 -206.75 190.332031 -204.019531 195.65625 -198.5625 C 200.976562 -193.113281 203.640625 -185.910156 203.640625 -176.953125 C 203.640625 -168.003906 201.953125 -158.335938 198.578125 -147.953125 L 160.421875 -33.09375 C 158.078125 -26.082031 157.554688 -21.082031 158.859375 -18.09375 C 160.160156 -15.113281 162.492188 -13.625 165.859375 -13.625 C 169.234375 -13.625 172.929688 -15.503906 176.953125 -19.265625 C 180.984375 -23.035156 185.332031 -31.410156 190 -44.390625 L 197.015625 -63.078125 L 204.40625 -63.078125 L 194.6875 -34.65625 C 191.050781 -23.75 186.3125 -15.441406 180.46875 -9.734375 C 174.625 -4.023438 168.390625 -0.0664062 161.765625 2.140625 C 155.148438 4.347656 148.726562 5.453125 142.5 5.453125 C 130.039062 5.453125 121.019531 2.660156 115.4375 -2.921875 C 109.863281 -8.503906 107.078125 -16.03125 107.078125 -25.5 C 107.078125 -34.976562 109.023438 -45.296875 112.921875 -56.453125 L 147.5625 -161.578125 C 149.125 -165.992188 150.226562 -170.148438 150.875 -174.046875 C 151.519531 -177.941406 151.390625 -181.117188 150.484375 -183.578125 C 149.578125 -186.046875 147.304688 -187.28125 143.671875 -187.28125 C 138.742188 -187.28125 133.035156 -184.035156 126.546875 -177.546875 C 120.054688 -171.054688 113.367188 -161.96875 106.484375 -150.28125 C 99.609375 -138.601562 92.726562 -124.976562 85.84375 -109.40625 C 78.96875 -93.832031 72.347656 -77.085938 65.984375 -59.171875 C 59.628906 -41.265625 53.988281 -22.835938 49.0625 -3.890625 Z M 57.625 -56.453125 "/></g></g></g><g fill="#000000" fill-opacity="1"><g transform="translate(2021.01081, 869.71335)"><g><path d="M 153.015625 -136.671875 C 143.410156 -108.109375 134.195312 -84.546875 125.375 -65.984375 C 116.550781 -47.429688 107.921875 -33.023438 99.484375 -22.765625 C 91.046875 -12.515625 82.410156 -5.25 73.578125 -0.96875 C 64.753906 3.3125 55.414062 5.453125 45.5625 5.453125 C 34.65625 5.453125 26.28125 3.117188 20.4375 -1.546875 C 14.601562 -6.222656 11.359375 -12.972656 10.703125 -21.796875 C 10.054688 -30.628906 11.679688 -41.144531 15.578125 -53.34375 L 53.34375 -168.203125 C 55.9375 -175.734375 56.519531 -180.859375 55.09375 -183.578125 C 53.664062 -186.304688 51.394531 -187.671875 48.28125 -187.671875 C 44.90625 -187.671875 41.140625 -185.785156 36.984375 -182.015625 C 32.835938 -178.253906 28.425781 -169.882812 23.75 -156.90625 L 16.75 -138.21875 L 9.34375 -138.21875 L 19.078125 -166.640625 C 22.972656 -177.546875 27.835938 -185.851562 33.671875 -191.5625 C 39.515625 -197.269531 45.742188 -201.226562 52.359375 -203.4375 C 58.984375 -205.644531 65.28125 -206.75 71.25 -206.75 C 82.9375 -206.75 91.632812 -204.21875 97.34375 -199.15625 C 103.050781 -194.09375 106.164062 -186.953125 106.6875 -177.734375 C 107.207031 -168.523438 105.390625 -157.5625 101.234375 -144.84375 L 66.1875 -39.71875 C 60.476562 -22.582031 61.773438 -14.015625 70.078125 -14.015625 C 75.015625 -14.015625 80.597656 -17.257812 86.828125 -23.75 C 93.054688 -30.238281 99.609375 -39.191406 106.484375 -50.609375 C 113.367188 -62.035156 120.179688 -75.40625 126.921875 -90.71875 C 133.671875 -106.03125 140.160156 -122.507812 146.390625 -140.15625 C 152.628906 -157.8125 158.082031 -175.859375 162.75 -194.296875 Z M 172.09375 -33.09375 C 170.28125 -26.601562 169.503906 -21.734375 169.765625 -18.484375 C 170.023438 -15.242188 172.226562 -13.625 176.375 -13.625 C 181.050781 -13.625 185.398438 -15.894531 189.421875 -20.4375 C 193.441406 -24.976562 197.398438 -32.960938 201.296875 -44.390625 L 208.703125 -64.25 L 216.09375 -64.25 L 205.578125 -34.65625 C 202.203125 -24.53125 197.722656 -16.546875 192.140625 -10.703125 C 186.566406 -4.867188 180.46875 -0.71875 173.84375 1.75 C 167.226562 4.21875 160.414062 5.453125 153.40625 5.453125 C 146.394531 5.453125 140.488281 4.28125 135.6875 1.9375 C 130.882812 -0.394531 127.1875 -3.632812 124.59375 -7.78125 C 122 -12.71875 120.894531 -18.625 121.28125 -25.5 C 121.675781 -32.382812 122.910156 -40.238281 124.984375 -49.0625 L 164.3125 -201.296875 C 174.945312 -201.554688 185.003906 -202.078125 194.484375 -202.859375 C 203.960938 -203.640625 212.722656 -204.9375 220.765625 -206.75 Z M 172.09375 -33.09375 "/></g></g></g><g fill="#000000" fill-opacity="1"><g transform="translate(2253.460622, 869.71335)"><g><path d="M 131.609375 -186.109375 C 126.410156 -186.109375 120.757812 -182.796875 114.65625 -176.171875 C 108.5625 -169.554688 102.460938 -160.539062 96.359375 -149.125 C 90.265625 -137.707031 84.554688 -124.726562 79.234375 -110.1875 C 73.910156 -95.65625 69.300781 -80.472656 65.40625 -64.640625 L 72.421875 -104.34375 C 81.242188 -128.75 89.804688 -148.476562 98.109375 -163.53125 C 106.421875 -178.582031 115.050781 -189.546875 124 -196.421875 C 132.957031 -203.304688 142.757812 -206.75 153.40625 -206.75 C 169.238281 -206.75 181.242188 -201.617188 189.421875 -191.359375 C 197.597656 -181.109375 201.6875 -166.25 201.6875 -146.78125 C 201.6875 -134.84375 199.929688 -121.929688 196.421875 -108.046875 C 192.921875 -94.160156 187.796875 -80.53125 181.046875 -67.15625 C 174.296875 -53.789062 166.054688 -41.65625 156.328125 -30.75 C 146.597656 -19.851562 135.367188 -11.09375 122.640625 -4.46875 C 109.921875 2.144531 95.90625 5.453125 80.59375 5.453125 C 73.070312 5.453125 66.320312 3.894531 60.34375 0.78125 C 54.375 -2.332031 49.960938 -6.488281 47.109375 -11.6875 L 49.84375 -17.90625 C 52.695312 -13.5 55.679688 -10.382812 58.796875 -8.5625 C 61.910156 -6.75 65.546875 -5.84375 69.703125 -5.84375 C 77.484375 -5.84375 85.070312 -9.148438 92.46875 -15.765625 C 99.863281 -22.390625 106.675781 -31.21875 112.90625 -42.25 C 119.144531 -53.28125 124.664062 -65.539062 129.46875 -79.03125 C 134.269531 -92.53125 138.03125 -106.222656 140.75 -120.109375 C 143.476562 -134.003906 144.84375 -147.050781 144.84375 -159.25 C 144.84375 -169.375 143.671875 -176.378906 141.328125 -180.265625 C 138.992188 -184.160156 135.753906 -186.109375 131.609375 -186.109375 Z M 51.390625 -11.296875 C 42.828125 -11.035156 33.742188 -9.148438 24.140625 -5.640625 C 14.535156 -2.140625 5.320312 1.816406 -3.5 6.234375 L -9.34375 3.5 C -7.53125 -0.132812 -5.910156 -3.832031 -4.484375 -7.59375 C -3.054688 -11.351562 -1.953125 -15.3125 -1.171875 -19.46875 L 69.3125 -259.703125 C 71.644531 -268.523438 71.316406 -275.015625 68.328125 -279.171875 C 65.347656 -283.328125 57.5 -285.40625 44.78125 -285.40625 L 47.109375 -293.578125 C 65.535156 -293.835938 81.890625 -295.328125 96.171875 -298.046875 C 110.453125 -300.773438 124.078125 -304.609375 137.046875 -309.546875 Z M 51.390625 -11.296875 "/></g></g></g></g></g></g></g></g></g></mask><clipPath id="9802f17000"><path d="M 0.5 0 L 2834.5 0 L 2834.5 1417 L 0.5 1417 Z M 0.5 0 " clip-rule="nonzero"/></clipPath><clipPath id="cbb91c289d"><rect x="0" width="2835" y="0" height="1417"/></clipPath><clipPath id="297fefa2dc"><rect x="0" width="2835" y="0" height="1417"/></clipPath><clipPath id="5ae40ce9ef"><rect x="0" width="2835" y="0" height="1417"/></clipPath></defs><g clip-path="url(#82764733fa)"><g transform="matrix(1, 0, 0, 1, 0, 0)"><g clip-path="url(#5ae40ce9ef)"><g clip-path="url(#5a593f378b)"><g transform="matrix(1, 0, 0, 1, 0, 0)"><g clip-path="url(#297fefa2dc)"><g clip-path="url(#a6206ed6d1)"><g mask="url(#73e8586486)"><g transform="matrix(1, 0, 0, 1, 0, 0)"><g clip-path="url(#cbb91c289d)"><g clip-path="url(#9802f17000)"><path fill="url(#cd62b544a1)" d="M 0.5 0 L 0.5 1417 L 2834.5 1417 L 2834.5 0 Z M 0.5 0 " fill-rule="nonzero"/></g></g></g></g></g></g></g></g></g></g></g></svg>
